{
  "accessors": [
    {
      "bufferView": 2,
      "componentType": 5126,
      "count": 60450,
      "max": [
        11.0,
        11.0,
        29.0
      ],
      "min": [
        -11.0,
        -11.0,
        0.0
      ],
      "type": "VEC3"
    },
    {
      "bufferView": 2,
      "byteOffset": 725400,
      "componentType": 5126,
      "count": 60450,
      "max": [
        1.0,
        1.0,
        1.0
      ],
      "min": [
        -1.0,
        -1.0,
        -1.0
      ],
      "type": "VEC3"
    },
    {
      "bufferView": 3,
      "componentType": 5126,
      "count": 60450,
      "max": [
        1.0,
        1.0,
        1.0,
        1.0
      ],
      "min": [
        -1.0,
        -1.0,
        -1.0,
        -1.0
      ],
      "type": "VEC4"
    },
    {
      "bufferView": 1,
      "componentType": 5126,
      "count": 60450,
      "max": [
        0.9824219942092896,
        0.9980469942092896
      ],
      "min": [
        0.0019529999699443579,
        0.5449219942092896
      ],
      "type": "VEC2"
    },
    {
      "bufferView": 1,
      "byteOffset": 483600,
      "componentType": 5126,
      "count": 60450,
      "max": [
        0.9985299706459045,
        0.982420027256012
      ],
      "min": [
        0.0004799999878741801,
        0.0004799999878741801
      ],
      "type": "VEC2"
    },
    {
      "bufferView": 0,
      "componentType": 5125,
      "count": 90552,
      "type": "SCALAR"
    }
  ],
  "asset": {
    "extras": {
      "author": "patrix (https://sketchfab.com/patrix)",
      "license": "CC-BY-SA-4.0 (http://creativecommons.org/licenses/by-sa/4.0/)",
      "source": "https://sketchfab.com/3d-models/forest-demo-1269b7e00f9d4ce09931c0c95967bc33",
      "title": "Forest Demo"
    },
    "generator": "Sketchfab-14.49.0",
    "version": "2.0"
  },
  "bufferViews": [
    {
      "buffer": 0,
      "byteLength": 362208,
      "name": "floatBufferViews",
      "target": 34963
    },
    {
      "buffer": 0,
      "byteLength": 967200,
      "byteOffset": 362208,
      "byteStride": 8,
      "name": "floatBufferViews",
      "target": 34962
    },
    {
      "buffer": 0,
      "byteLength": 1450800,
      "byteOffset": 1329408,
      "byteStride": 12,
      "name": "floatBufferViews",
      "target": 34962
    },
    {
      "buffer": 0,
      "byteLength": 967200,
      "byteOffset": 2780208,
      "byteStride": 16,
      "name": "floatBufferViews",
      "target": 34962
    }
  ],
  "buffers": [
    {
      "byteLength": 3747408,
      "uri": "scene.bin"
    }
  ],
  "extensionsRequired": [
    "KHR_materials_pbrSpecularGlossiness"
  ],
  "extensionsUsed": [
    "KHR_materials_pbrSpecularGlossiness"
  ],
  "images": [
    {
      "uri": "textures/forest_diffuse.png"
    },
    {
      "uri": "textures/forest_specularGlossiness.png"
    },
    {
      "uri": "textures/forest_normal.png"
    },
    {
      "uri": "textures/forest_occlusion.png"
    }
  ],
  "materials": [
    {
      "alphaMode": "MASK",
      "extensions": {
        "KHR_materials_pbrSpecularGlossiness": {
          "diffuseFactor": [
            1.0,
            1.0,
            1.0,
            1.0
          ],
          "diffuseTexture": {
            "index": 0
          },
          "glossinessFactor": 1.0,
          "specularFactor": [
            0.02,
            0.02,
            0.02
          ],
          "specularGlossinessTexture": {
            "index": 1
          }
        }
      },
      "name": "forest",
      "normalTexture": {
        "index": 2
      },
      "occlusionTexture": {
        "index": 3,
        "texCoord": 1
      }
    }
  ],
  "meshes": [
    {
      "name": "forest_forest_0",
      "primitives": [
        {
          "attributes": {
            "NORMAL": 1,
            "POSITION": 0,
            "TANGENT": 2,
            "TEXCOORD_0": 3,
            "TEXCOORD_1": 4
          },
          "indices": 5,
          "material": 0,
          "mode": 4
        }
      ]
    }
  ],
  "nodes": [
    {
      "children": [
        1
      ],
      "matrix": [
        1.0,
        0.0,
        0.0,
        0.0,
        0.0,
        2.220446049250313e-16,
        -1.0,
        0.0,
        0.0,
        1.0,
        2.220446049250313e-16,
        0.0,
        0.0,
        0.0,
        0.0,
        1.0
      ],
      "name": "Sketchfab_model"
    },
    {
      "children": [
        2
      ],
      "matrix": [
        1.0,
        0.0,
        0.0,
        0.0,
        0.0,
        0.0,
        1.0,
        0.0,
        0.0,
        -1.0,
        0.0,
        0.0,
        0.0,
        0.0,
        0.0,
        1.0
      ],
      "name": "forest.FBX"
    },
    {
      "children": [
        3
      ],
      "name": "RootNode"
    },
    {
      "children": [
        4
      ],
      "matrix": [
        1.0,
        0.0,
        0.0,
        0.0,
        0.0,
        2.220446049250313e-16,
        -1.0,
        0.0,
        0.0,
        1.0,
        2.220446049250313e-16,
        0.0,
        0.0,
        0.0,
        0.0,
        1.0
      ],
      "name": "forest"
    },
    {
      "mesh": 0,
      "name": "forest_forest_0"
    }
  ],
  "samplers": [
    {
      "magFilter": 9728,
      "minFilter": 9728,
      "wrapS": 10497,
      "wrapT": 10497
    },
    {
      "magFilter": 9729,
      "minFilter": 9987,
      "wrapS": 10497,
      "wrapT": 10497
    }
  ],
  "scene": 0,
  "scenes": [
    {
      "name": "Sketchfab_Scene",
      "nodes": [
        0
      ]
    }
  ],
  "textures": [
    {
      "sampler": 0,
      "source": 0
    },
    {
      "sampler": 0,
      "source": 1
    },
    {
      "sampler": 0,
      "source": 2
    },
    {
      "sampler": 1,
      "source": 3
    }
  ]
}
